<svg width="14" height="17" viewBox="0 0 14 17" fill="none" xmlns="http://www.w3.org/2000/svg">
<path d="M13 7.13636H13.75H13ZM7 16L6.5775 16.6197C6.83236 16.7934 7.16764 16.7934 7.4225 16.6197L7 16ZM1 7.13636H0.25H1ZM7 1V1.75V1ZM12.25 7.13636C12.25 9.22755 10.9187 11.2625 9.44979 12.8483C8.72967 13.6257 8.00713 14.2623 7.46389 14.7047C7.19285 14.9254 6.96792 15.0966 6.81221 15.2116C6.7344 15.2691 6.67398 15.3125 6.63387 15.3409C6.61382 15.3551 6.59885 15.3655 6.58933 15.3722C6.58457 15.3755 6.58118 15.3778 6.57919 15.3792C6.57819 15.3799 6.57755 15.3803 6.57727 15.3805C6.57713 15.3806 6.57707 15.3806 6.57711 15.3806C6.57713 15.3806 6.57723 15.3805 6.57724 15.3805C6.57736 15.3804 6.5775 15.3803 7 16C7.4225 16.6197 7.42269 16.6195 7.4229 16.6194C7.423 16.6193 7.42323 16.6192 7.42344 16.619C7.42384 16.6188 7.42433 16.6184 7.42492 16.618C7.42609 16.6172 7.42762 16.6162 7.42951 16.6149C7.43329 16.6123 7.4385 16.6087 7.44509 16.6041C7.45828 16.5949 7.477 16.5818 7.5009 16.5649C7.54867 16.5311 7.61717 16.4819 7.70341 16.4182C7.87583 16.2908 8.11965 16.1051 8.41111 15.8678C8.99287 15.394 9.77033 14.7095 10.5502 13.8676C12.0813 12.2147 13.75 9.8179 13.75 7.13636H12.25ZM7 16C7.4225 15.3803 7.42264 15.3804 7.42276 15.3805C7.42277 15.3805 7.42287 15.3806 7.42289 15.3806C7.42293 15.3806 7.42287 15.3806 7.42273 15.3805C7.42245 15.3803 7.42181 15.3799 7.42081 15.3792C7.41883 15.3778 7.41543 15.3755 7.41067 15.3722C7.40115 15.3655 7.38618 15.3551 7.36613 15.3409C7.32602 15.3125 7.2656 15.2691 7.18779 15.2116C7.03208 15.0966 6.80715 14.9254 6.53611 14.7047C5.99287 14.2623 5.27033 13.6257 4.55021 12.8483C3.0813 11.2625 1.75 9.22755 1.75 7.13636H0.25C0.25 9.8179 1.9187 12.2147 3.44979 13.8676C4.22967 14.7095 5.00713 15.394 5.58889 15.8678C5.88035 16.1051 6.12417 16.2908 6.29659 16.4182C6.38283 16.4819 6.45133 16.5311 6.4991 16.5649C6.523 16.5818 6.54172 16.5949 6.55491 16.6041C6.5615 16.6087 6.56671 16.6123 6.57049 16.6149C6.57238 16.6162 6.57391 16.6172 6.57508 16.618C6.57567 16.6184 6.57616 16.6188 6.57656 16.619C6.57677 16.6192 6.577 16.6193 6.5771 16.6194C6.57731 16.6195 6.5775 16.6197 7 16ZM1.75 7.13636C1.75 5.70244 2.30712 4.33055 3.29361 3.32164L2.2211 2.27296C0.957158 3.56563 0.25 5.31536 0.25 7.13636H1.75ZM3.29361 3.32164C4.27955 2.3133 5.61312 1.75 7 1.75V0.25C5.20428 0.25 3.48561 0.979717 2.2211 2.27296L3.29361 3.32164ZM7 1.75C8.38688 1.75 9.72045 2.3133 10.7064 3.32164L11.7789 2.27296C10.5144 0.979717 8.79572 0.25 7 0.25V1.75ZM10.7064 3.32164C11.6929 4.33055 12.25 5.70244 12.25 7.13636H13.75C13.75 5.31536 13.0428 3.56563 11.7789 2.27296L10.7064 3.32164ZM8.25 7.13636C8.25 7.8678 7.67456 8.43182 7 8.43182V9.93182C8.53458 9.93182 9.75 8.66427 9.75 7.13636H8.25ZM7 8.43182C6.32544 8.43182 5.75 7.8678 5.75 7.13636H4.25C4.25 8.66427 5.46542 9.93182 7 9.93182V8.43182ZM5.75 7.13636C5.75 6.40493 6.32544 5.84091 7 5.84091V4.34091C5.46542 4.34091 4.25 5.60846 4.25 7.13636H5.75ZM7 5.84091C7.67456 5.84091 8.25 6.40493 8.25 7.13636H9.75C9.75 5.60846 8.53458 4.34091 7 4.34091V5.84091Z" fill="#003d5b"/>
</svg>
