<svg width="16" height="17" viewBox="0 0 16 17" fill="none" xmlns="http://www.w3.org/2000/svg">
<path d="M15 8.11112H14.25L14.25 8.11308L15 8.11112ZM14.3 11.0667L13.6305 10.7285L13.6291 10.7314L14.3 11.0667ZM8.38888 14.7222L8.38859 13.9722L8.38692 13.9722L8.38888 14.7222ZM5.43333 14.0222L5.77147 13.3528C5.59297 13.2626 5.38586 13.2475 5.19616 13.3107L5.43333 14.0222ZM1 15.5L0.288488 15.2628C0.198654 15.5323 0.268796 15.8295 0.46967 16.0303C0.670544 16.2312 0.96767 16.3013 1.23717 16.2115L1 15.5ZM2.47778 11.0667L3.18929 11.3038C3.25252 11.1141 3.23738 10.907 3.14722 10.7285L2.47778 11.0667ZM1.77778 8.11112L2.52778 8.11308L2.52778 8.11141L1.77778 8.11112ZM5.43333 2.20002L5.76862 2.87091L5.77147 2.86947L5.43333 2.20002ZM8.38888 1.50002L8.38692 2.25002H8.38888V1.50002ZM8.77777 1.50002L8.81908 0.751161C8.80532 0.750402 8.79154 0.750022 8.77777 0.750022V1.50002ZM15 7.72223H15.75C15.75 7.70846 15.7496 7.69468 15.7488 7.68092L15 7.72223ZM14.25 8.11308C14.2523 9.02151 14.0401 9.91766 13.6305 10.7285L14.9694 11.4048C15.4855 10.3831 15.753 9.25386 15.75 8.10917L14.25 8.11308ZM13.6291 10.7314C13.1426 11.7048 12.3946 12.5236 11.4691 13.096L12.258 14.3718C13.4205 13.6529 14.3598 12.6246 14.9709 11.402L13.6291 10.7314ZM11.4691 13.096C10.5435 13.6684 9.47685 13.9718 8.38859 13.9722L8.38917 15.4722C9.75594 15.4717 11.0956 15.0906 12.258 14.3718L11.4691 13.096ZM8.38692 13.9722C7.47849 13.9746 6.58234 13.7623 5.77147 13.3528L5.09519 14.6917C6.11694 15.2078 7.24614 15.4752 8.39083 15.4722L8.38692 13.9722ZM5.19616 13.3107L0.762829 14.7885L1.23717 16.2115L5.6705 14.7337L5.19616 13.3107ZM1.71151 15.7372L3.18929 11.3038L1.76626 10.8295L0.288488 15.2628L1.71151 15.7372ZM3.14722 10.7285C2.73765 9.91766 2.52541 9.02151 2.52777 8.11308L1.02778 8.10917C1.02479 9.25386 1.29224 10.3831 1.80833 11.4048L3.14722 10.7285ZM2.52778 8.11141C2.5282 7.02315 2.8316 5.95649 3.40399 5.03092L2.12823 4.24197C1.40935 5.40442 1.02831 6.74406 1.02778 8.11083L2.52778 8.11141ZM3.40399 5.03092C3.97638 4.10535 4.79516 3.35742 5.76862 2.8709L5.09803 1.52914C3.87544 2.14017 2.84712 3.07952 2.12823 4.24197L3.40399 5.03092ZM5.77147 2.86947C6.58234 2.4599 7.47849 2.24765 8.38692 2.25002L8.39083 0.750025C7.24614 0.74704 6.11694 1.01448 5.09519 1.53057L5.77147 2.86947ZM8.38888 2.25002H8.77777V0.750022H8.38888V2.25002ZM8.73645 2.24888C10.1733 2.32815 11.5303 2.93461 12.5479 3.95213L13.6085 2.89147C12.3299 1.61284 10.6246 0.850769 8.81908 0.751161L8.73645 2.24888ZM12.5479 3.95213C13.5654 4.96965 14.1718 6.32674 14.2511 7.76355L15.7488 7.68092C15.6492 5.87542 14.8872 4.17009 13.6085 2.89147L12.5479 3.95213ZM14.25 7.72223V8.11112H15.75V7.72223H14.25Z" fill="#003d5b"/>
</svg>
