<?xml version="1.0" encoding="utf-8"?>
<!-- Generator: Adobe Illustrator 27.8.1, SVG Export Plug-In . SVG Version: 6.00 Build 0)  -->
<svg version="1.1" id="Layer_1" xmlns="http://www.w3.org/2000/svg" xmlns:xlink="http://www.w3.org/1999/xlink" x="0px" y="0px"
	 viewBox="0 0 605.1 93.5" style="enable-background:new 0 0 605.1 93.5;" xml:space="preserve">
<style type="text/css">
	.st0{fill:#25E2CC;}
	.st1{fill:#FFFFFF;}
</style>
<g>
	<path class="st0" d="M488.4,0h22.5c6.2,0,11.3,5,11.3,11.3v0c0,6.2-5,11.3-11.3,11.3h-22.5c-6.2,0-11.3-5-11.3-11.3v0
		C477.1,5,482.2,0,488.4,0z"/>
	<path class="st1" d="M0,62.1c0-17.6,14.3-31.3,33.2-31.3c11.9,0,18.6,4.2,22.1,6.7l-6.9,13c-2.8-1.8-6.9-4.1-13.2-4.1
		c-10.5,0-17.6,6.6-17.6,15.7s6.9,15.7,17.3,15.7c6.7,0,10.7-2.2,13.5-4.1l6.8,12.8c-3.7,2.4-10.1,6.8-22,6.8
		C13.9,93.4,0,79.8,0,62.1L0,62.1z"/>
	<path class="st1" d="M58.1,62.1c0-17.8,14.5-31.3,32.6-31.3s32.6,13.5,32.6,31.3s-14.5,31.3-32.6,31.3S58.1,79.9,58.1,62.1z
		 M106.1,62.1c0-8.7-6.6-15.7-15.3-15.7s-15.3,7.1-15.3,15.7s6.7,15.7,15.3,15.7S106.1,70.9,106.1,62.1z"/>
	<path class="st1" d="M193.7,59v33.3h-17.2V61.3c0-9.2-5.4-15.1-13.2-15.1c-8.6,0-14,6.6-14,14.5v31.4h-17.2V32h12.3l0.6,10.2
		c3.5-6.3,11.1-11.4,22.1-11.4C183.4,30.8,193.7,41.8,193.7,59L193.7,59z"/>
	<path class="st1" d="M201.7,62.1c0-17.6,14.3-31.3,33.1-31.3c11.9,0,18.6,4.2,22.1,6.7l-6.9,13c-2.8-1.8-6.9-4.1-13.2-4.1
		c-10.5,0-17.6,6.6-17.6,15.7s6.9,15.7,17.3,15.7c6.7,0,10.7-2.2,13.5-4.1l6.8,12.8c-3.7,2.4-10.1,6.8-22,6.8
		C215.6,93.4,201.7,79.8,201.7,62.1L201.7,62.1z"/>
	<path class="st1" d="M321.1,66.8h-44.3c2,6.9,8.6,12.2,18.1,12.2c8.8,0,13.4-4.1,16-6.2l7.1,12.3c-3.7,3.3-11.1,8.2-24.9,8.2
		c-19.1,0-33.1-13.6-33.1-31.3s13-31.3,31.5-31.3s30,13.4,30,31.4C321.4,64.5,321.1,66.9,321.1,66.8L321.1,66.8z M277,55.8h28
		c-0.8-6.8-6.2-11.4-13-11.4C284.6,44.4,278.9,48.4,277,55.8z"/>
	<path class="st1" d="M391.6,59v33.3h-17.2V61.3c0-9.2-5.4-15.1-13.2-15.1c-8.6,0-14,6.6-14,14.5v31.4H330V32h12.3l0.6,10.2
		c3.5-6.3,11.1-11.4,22.1-11.4C381.2,30.8,391.6,41.8,391.6,59L391.6,59z"/>
	<path class="st1" d="M494.4,31.3l-1.4,17c-1.7-0.7-3.3-1.2-6-1.2c-9.6,0-15.5,6.3-15.5,14.8v30.3h-17.2V32h14.3l0.7,11.8
		c2.1-7.3,9.6-13,19.9-13C491,30.8,492.8,30.9,494.4,31.3L494.4,31.3z"/>
	<path class="st1" d="M502.3,32h17.2v60.3h-17.2C502.3,92.3,502.3,32,502.3,32z"/>
	<path class="st1" d="M570.3,92.3l-12.6-19.1l-12.6,19.1h-19.7L547.1,62l-20.6-30h19.9l11.7,18.5L570.3,32h19.5l-21.4,29.6l22,30.7
		H570.3L570.3,92.3z"/>
	<g>
		<polygon class="st1" points="595.9,37.1 595.9,32.8 594.1,32.8 594.1,32.1 598.6,32.1 598.6,32.8 596.8,32.8 596.8,37.1 		"/>
		<polygon class="st1" points="605.1,37.1 605.1,32.1 604.4,32.1 602.2,35.5 600,32.1 599.3,32.1 599.3,37.1 600.1,37.1 600.1,33.7 
			602,36.5 602.4,36.5 604.3,33.6 604.3,37.1 		"/>
	</g>
	<path class="st1" d="M441.7,74.7c-1.6,0.9-4.9,3.3-10,3.3c-6.2,0-10.6-2.6-10.6-9.7V46.4h22.4V32h-22.4V11.3h-16.6V32h-9.4
		c5.6,6.9,8.9,16.2,8.9,27l0,0v11c0,15.1,9,23.4,23.9,23.4c11.4,0,17.4-4.3,19.8-6L441.7,74.7L441.7,74.7z"/>
	<circle class="st1" cx="510.9" cy="11.3" r="11.3"/>
</g>
</svg>
